PathFileType	4	(X/Y/Z)	/Users/itak/Documents/Research/Walk-IL/dataset/trc/00026_00004.trc
DataRate	CameraRate	NumFrames	NumMarkers	Units	OrigDataRate	OrigDataStartFrame	OrigNumFrames
100.000000	100.000000	4	53	mm	100.000000	92	743
Frame#	Time	RPSI			LPSI			L3			STRN			T10			C7			CLAV			RBAK			LBAK			LSHO			LUPA			LAEL			LAOL			LWTS			LWPS			LFRA			LIFD			LHPS			LHTS			RSHO			RUPA			RAEL			RAOL			RWTS			RWPS			RFRA			RIFD			RHTS			RHPS			RBHD			LFHD			RFHD			LBHD			LHIP			RHIP			RASI			LASI			LKNE			LTHI			LANK			LTIP			LTOE			LMT1			LMT5			LHEE			RKNE			RTHI			RANK			RTIP			RTOE			RMT1			RMT5			RHEE			
		X1	Y1	Z1	X2	Y2	Z2	X3	Y3	Z3	X4	Y4	Z4	X5	Y5	Z5	X6	Y6	Z6	X7	Y7	Z7	X8	Y8	Z8	X9	Y9	Z9	X10	Y10	Z10	X11	Y11	Z11	X12	Y12	Z12	X13	Y13	Z13	X14	Y14	Z14	X15	Y15	Z15	X16	Y16	Z16	X17	Y17	Z17	X18	Y18	Z18	X19	Y19	Z19	X20	Y20	Z20	X21	Y21	Z21	X22	Y22	Z22	X23	Y23	Z23	X24	Y24	Z24	X25	Y25	Z25	X26	Y26	Z26	X27	Y27	Z27	X28	Y28	Z28	X29	Y29	Z29	X30	Y30	Z30	X31	Y31	Z31	X32	Y32	Z32	X33	Y33	Z33	X34	Y34	Z34	X35	Y35	Z35	X36	Y36	Z36	X37	Y37	Z37	X38	Y38	Z38	X39	Y39	Z39	X40	Y40	Z40	X41	Y41	Z41	X42	Y42	Z42	X43	Y43	Z43	X44	Y44	Z44	X45	Y45	Z45	X46	Y46	Z46	X47	Y47	Z47	X48	Y48	Z48	X49	Y49	Z49	X50	Y50	Z50	X51	Y51	Z51	X52	Y52	Z52	X53	Y53	Z53	

93	0.92	-120.0176315307617	1060.720703125	1145.7021484375	-131.5708465576172	1052.03515625	982.8790893554688	-127.8340682983398	1118.30322265625	1057.800903320312	109.7749938964844	1291.291381835938	1049.452880859375	-140.5575714111328	1265.571044921875	1062.016845703125	-67.61174011230469	1527.600952148438	1041.873046875	78.501220703125	1419.981323242188	1042.7138671875	-130.1399841308594	1399.296752929688	1129.465454101562	-95.84750366210938	1485.552490234375	947.5441284179688	1.037311315536499	1478.147827148438	867.4336547851562	-50.64563751220703	1355.072631835938	798.0030517578125	-81.44862365722656	1139.704467773438	779.3742065429688	-121.0933532714844	1133.050537109375	878.3505859375	-6.237882137298584	881.1067504882812	821.9844360351562	-90.58013153076172	871.894287109375	796.73583984375	-81.46821594238281	1022.822082519531	773.6035766601562	11.54207134246826	697.4481811523438	840.9058227539062	-64.48780822753906	779.3037109375	793.25439453125	6.076116561889648	786.7791137695312	806.1380004882812	15.76017284393311	1508.995483398438	1212.90966796875	-3.100675821304321	1444.965576171875	1287.88134765625	-75.32794952392578	1185.848266601562	1328.655395507812	-80.39711761474609	1152.57861328125	1233.825561523438	15.02301025390625	907.4661254882812	1315.019409179688	-50.02950286865234	908.0545043945312	1380.466796875	-72.876220703125	1109.894897460938	1348.548217773438	-2.893122434616089	723.361083984375	1313.494018554688	30.81048774719238	796.0032958984375	1337.689819335938	-25.25092887878418	803.669921875	1387.617065429688	1.566965579986572	1700.1494140625	977.6807861328125	216.4310150146484	1668.7333984375	999.6862182617188	168.3923034667969	1664.0263671875	914.3580322265625	77.98102569580078	1702.751342773438	1100.916381835938	-35.43555450439453	953.3728637695312	861.6621704101562	-12.37657451629639	936.7236328125	1237.650146484375	92.43204498291016	965.2938842773438	1163.957885742188	77.40407562255859	994.8820190429688	929.9027709960938	180.1685791015625	554.5017700195312	891.8141479492188	94.32894897460938	668.4380493164062	863.9293823242188	145.0072174072266	52.32368087768555	944.12548828125	133.217041015625	297.675537109375	904.6073608398438	367.2909240722656	76.33122253417969	961.2529907226562	314.4576721191406	77.69623565673828	989.6033935546875	260.6026000976562	65.36890411376953	898.9271240234375	88.24702453613281	56.51671981811523	1008.292419433594	-77.58838653564453	508.8914794921875	1186.190795898438	-14.1003589630127	770.808837890625	1228.993896484375	-271.3143005371094	48.51351547241211	1141.109130859375	-125.6083755493164	390.4879455566406	1182.06640625	-34.4986572265625	45.98785018920898	1131.785522460938	-93.24663543701172	52.89836502075195	1094.347045898438	-126.2798385620117	43.73886108398438	1185.881591796875	-320.0849914550781	51.49019622802734	1089.523315429688	
94	0.93	-114.7457046508789	1059.556030273438	1144.224487304688	-126.2830581665039	1050.646850585938	981.4441528320312	-122.5810241699219	1117.070556640625	1056.290405273438	115.0669631958008	1289.909545898438	1047.505493164062	-135.2133483886719	1264.335327148438	1060.519775390625	-62.1467399597168	1526.3125	1040.077758789062	83.86012268066406	1418.599365234375	1040.683837890625	-124.5883483886719	1398.129516601562	1127.932861328125	-90.64501953125	1484.170776367188	945.8595581054688	6.0562424659729	1476.6455078125	865.5245361328125	-45.99007415771484	1353.552490234375	796.3789672851562	-77.17948150634766	1138.232421875	778.1265258789062	-116.4468460083008	1131.688232421875	877.2538452148438	-1.742196798324585	879.7024536132812	820.6236572265625	-86.20132446289062	870.4436645507812	795.809814453125	-77.25347900390625	1021.336608886719	772.4667358398438	16.27560043334961	696.1111450195312	839.6630859375	-60.02113342285156	777.8448486328125	792.3094482421875	10.55191040039062	785.3599243164062	804.8392333984375	21.55722427368164	1507.8046875	1210.929443359375	2.890052080154419	1443.863891601562	1286.0263671875	-69.07222747802734	1184.76171875	1327.414428710938	-74.45645141601562	1151.339477539062	1232.65625	21.48313903808594	906.46435546875	1313.916870117188	-43.33525085449219	907.0990600585938	1379.601684570312	-66.51626586914062	1108.837036132812	1347.41943359375	3.660377740859985	722.3426513671875	1312.71826171875	37.48638153076172	795.0458374023438	1336.740112304688	-18.41394233703613	802.7422485351562	1386.777709960938	6.847835063934326	1698.856567382812	976.1435546875	221.8262176513672	1667.100830078125	996.4440307617188	173.0843811035156	1662.551879882812	911.4901123046875	84.20796966552734	1701.202880859375	1098.78271484375	-30.14672470092773	951.9307250976562	860.3017578125	-7.174919128417969	935.6763305664062	1236.276245117188	97.71828460693359	964.07470703125	1162.624633789062	82.70262145996094	993.6041870117188	928.5204467773438	185.81005859375	554.232666015625	889.8529052734375	99.45508575439453	667.288818359375	862.0283813476562	163.3922729492188	51.78209686279297	939.5745239257812	144.89501953125	296.9385986328125	901.6343994140625	385.26953125	79.88689422607422	955.2760009765625	332.6452026367188	80.15591430664062	983.9605102539062	278.3573608398438	67.3355712890625	893.6397094726562	107.0339050292969	54.54649353027344	1004.123962402344	-74.25366973876953	508.1962585449219	1185.373168945312	-9.590668678283691	769.8648071289062	1227.692504882812	-271.2543029785156	48.89361572265625	1140.884399414062	-123.0897979736328	389.9872131347656	1181.379028320312	-34.43461990356445	45.92231369018555	1131.780883789062	-93.15773773193359	52.81772994995117	1094.314208984375	-126.22216796875	43.72484970092773	1185.8466796875	-320.0465393066406	52.13933944702148	1089.398681640625	
95	0.9400000000000001	-109.3690719604492	1058.335083007812	1142.667358398438	-120.8662948608398	1049.191284179688	979.9235229492188	-117.1968460083008	1115.7783203125	1054.690795898438	120.4740524291992	1288.473388671875	1045.469482421875	-129.7601776123047	1263.045532226562	1058.900268554688	-56.57581329345703	1524.959106445312	1038.134521484375	89.32059478759766	1417.16552734375	1038.548583984375	-118.9475402832031	1396.915649414062	1126.25634765625	-85.32296752929688	1482.7119140625	944.0307006835938	11.2195291519165	1475.059204101562	863.491455078125	-41.17390060424805	1351.942504882812	794.63427734375	-72.74626159667969	1136.669799804688	776.76513671875	-111.6626205444336	1130.242553710938	876.0304565429688	2.952347755432129	878.232421875	819.2042236328125	-81.63536071777344	868.8988647460938	794.8102416992188	-72.84656524658203	1019.76318359375	771.231201171875	21.23613929748535	694.7116088867188	838.3844604492188	-55.3396110534668	776.3036499023438	791.2955322265625	15.23591232299805	783.8712158203125	803.494873046875	27.43080902099609	1506.565673828125	1208.818603515625	8.94548225402832	1442.7177734375	1284.054443359375	-62.70652389526367	1183.62548828125	1326.076782226562	-68.40644073486328	1150.044311523438	1231.3876953125	28.12344741821289	905.4363403320312	1312.726196289062	-36.45533752441406	906.1055297851562	1378.628051757812	-60.03617095947266	1107.736938476562	1346.193115234375	10.46906566619873	721.32861328125	1311.819091796875	44.39060974121094	794.0781860351562	1335.729248046875	-11.34744262695312	801.7880859375	1385.852416992188	12.22445774078369	1697.505249023438	974.5006103515625	227.3063507080078	1665.441284179688	993.112060546875	177.85693359375	1661.062866210938	908.53125	90.51048278808594	1699.596557617188	1096.539184570312	-24.70714378356934	950.4144897460938	858.8799438476562	-1.868072748184204	934.5996704101562	1234.848510742188	103.1301040649414	962.8219604492188	1161.2470703125	88.14147186279297	992.2536010742188	927.0851440429688	191.5818023681641	553.8635864257812	887.892333984375	104.737060546875	666.04248046875	860.06982421875	181.4433135986328	51.4288444519043	934.6757202148438	156.4421691894531	296.2693176269531	898.4534301757812	402.8015747070312	83.91639709472656	949.169677734375	350.3196105957031	82.98450469970703	978.1220703125	295.744873046875	69.60958099365234	888.1146240234375	125.4468231201172	52.68985748291016	999.5364379882812	-70.76414489746094	507.4619445800781	1184.574096679688	-4.966368198394775	768.8917236328125	1226.3798828125	-271.149658203125	49.30594253540039	1140.683227539062	-120.4264755249023	389.4512329101562	1180.6943359375	-34.39618682861328	45.85182571411133	1131.759887695312	-93.07532501220703	52.74187088012695	1094.273071289062	-126.1636810302734	43.72139358520508	1185.811889648438	-320.0029907226562	52.86093521118164	1089.2900390625	
96	0.9500000000000001	-103.8790588378906	1057.061767578125	1141.035278320312	-115.3179321289062	1047.6787109375	978.3150024414062	-111.6829605102539	1114.435546875	1053.00146484375	125.9970474243164	1286.988159179688	1043.344482421875	-124.1925506591797	1261.707275390625	1057.1591796875	-50.90191268920898	1523.549926757812	1036.035888671875	94.88514709472656	1415.686401367188	1036.306274414062	-113.2176132202148	1395.66259765625	1124.429443359375	-79.87538909912109	1481.184326171875	942.0525512695312	16.53091621398926	1473.393676757812	861.3312377929688	-36.18986511230469	1350.244995117188	792.7648315429688	-68.14250946044922	1135.018798828125	775.284912109375	-106.7234191894531	1128.716796875	874.6826171875	7.848798274993896	876.6986083984375	817.7197875976562	-76.88409423828125	867.2617797851562	793.7349243164062	-68.24329376220703	1018.104309082031	769.8924560546875	26.40935897827148	693.2442626953125	837.0653076171875	-50.45499420166016	774.6815795898438	790.2042846679688	20.12699508666992	782.3136596679688	802.0972900390625	33.37921142578125	1505.289428710938	1206.577270507812	15.06030082702637	1441.535888671875	1281.9609375	-56.2402229309082	1182.451538085938	1324.637451171875	-62.23771286010742	1148.702270507812	1230.012939453125	34.93621063232422	904.3936767578125	1311.447265625	-29.3995246887207	905.0796508789062	1377.541381835938	-53.44301223754883	1106.605346679688	1344.864624023438	17.52041435241699	720.328857421875	1310.806274414062	51.51863098144531	793.111572265625	1334.651489257812	-4.065107822418213	800.8163452148438	1384.840698242188	17.70151710510254	1696.099853515625	972.7462158203125	232.8737335205078	1663.763671875	989.6874389648438	182.7183837890625	1659.567993164062	905.4795532226562	96.89145660400391	1697.940307617188	1094.181274414062	-19.11362075805664	948.834716796875	857.39697265625	3.542223453521729	933.4970703125	1233.364868164062	108.6632461547852	961.5405883789062	1159.826416015625	93.72529602050781	990.8355712890625	925.5986328125	197.5211944580078	553.4134521484375	885.9238891601562	110.2171783447266	664.7188720703125	858.0546264648438	199.0526885986328	51.25203323364258	929.477294921875	167.8176879882812	295.6692199707031	895.0745849609375	419.7898254394531	88.28163909912109	942.90625	367.4127197265625	86.07750701904297	972.0897216796875	312.642822265625	72.12343597412109	882.3591918945312	143.3973693847656	50.95658493041992	994.5950927734375	-67.12342071533203	506.6925048828125	1183.78759765625	-0.2354226857423782	767.8945922851562	1225.048461914062	-270.997314453125	49.76567840576172	1140.504760742188	-117.6228485107422	388.8878784179688	1180.00830078125	-34.38088607788086	45.77761840820312	1131.721923828125	-92.99884033203125	52.66661071777344	1094.226318359375	-126.1062240600586	43.72552108764648	1185.7724609375	-319.9429626464844	53.65346908569336	1089.190185546875	
